<svg class="navbar-brand-sm-icon" enable-background="new 0 0 370 65.816" version="1.1" viewBox="0 0 206 65.816" x="0px" xml:space="preserve" xmlns="http://www.w3.org/2000/svg" xmlns:xlink="http://www.w3.org/1999/xlink" y="0px"><g><path d="M38.387,24.05c-0.757-5.375-5.905-9.463-11.811-9.463c-10.675,0-14.688,9.085-14.688,18.549c0,9.011,4.013,18.096,14.688,18.096c7.268,0,11.358-4.997,12.266-12.114h11.508c-1.21,13.477-10.524,22.107-23.773,22.107C9.843,61.224,0,48.732,0,33.135C0,17.084,9.843,4.592,26.576,4.592c11.886,0,21.881,6.966,23.319,19.458H38.387z" fill="#000000"></path><path d="M90.706,24.05c-0.756-5.375-5.907-9.463-11.812-9.463c-10.675,0-14.688,9.085-14.688,18.549c0,9.011,4.013,18.096,14.688,18.096c7.269,0,11.357-4.997,12.266-12.114h11.508c-1.211,13.477-10.524,22.107-23.774,22.107c-16.733,0-26.574-12.492-26.574-28.089c0-16.051,9.841-28.543,26.574-28.543c11.888,0,21.881,6.966,23.32,19.458H90.706z" fill="#000000"></path><path d="M143.026,24.05c-0.757-5.375-5.907-9.463-11.812-9.463c-10.676,0-14.688,9.085-14.688,18.549c0,9.011,4.011,18.096,14.688,18.096c7.269,0,11.356-4.997,12.266-12.114h11.509c-1.212,13.477-10.525,22.107-23.774,22.107c-16.733,0-26.575-12.492-26.575-28.089c0-16.051,9.842-28.543,26.575-28.543c11.887,0,21.881,6.966,23.32,19.458H143.026z" fill="#000000"></path><path d="M159.306,5.879h25.44c10.296,0,17.263,3.331,17.263,13.401c0,5.3-2.649,9.01-7.345,11.281c6.587,1.893,9.919,6.965,9.919,13.704c0,10.979-9.312,15.673-19.079,15.673h-26.198V5.879z M171.193,27.76h12.038c4.165,0,7.268-1.893,7.268-6.435c0-5.149-3.937-6.208-8.176-6.208h-11.13V27.76z M171.193,50.702h12.72c4.695,0,8.783-1.514,8.783-7.117c0-5.527-3.482-7.723-8.556-7.723h-12.947V50.702z" fill="#000000"></path></g></svg>