<svg width="86" height="24" fill="#fff" xmlns="http://www.w3.org/2000/svg"><path d="M53.661 0c.631 0 1.143.512 1.143 1.144v21.713c0 .631-.512 1.143-1.143 1.143H30.588a1.143 1.143 0 0 1-1.143-1.143V1.144c0-.632.512-1.144 1.143-1.144H53.66ZM35.482 3.612c-.235 0-.479.063-.73.189-.22.157-.384.346-.494.565-.157.33-.243.636-.259.918 0 .173-.008.345-.023.518 0 .157-.01.315-.025.471v.094a26.32 26.32 0 0 0-.047 1.484v3.155c0 .534-.007 1.052-.023 1.554l-.024 3.461-.023 1.86v.354a1.727 1.727 0 0 0 0 .4c.016.079.023.158.023.236l.047.235c0 .094.008.189.024.283.016.078.04.158.071.236l.094.14c0 .047.023.095.07.142.079.188.212.346.4.47a1.85 1.85 0 0 0 1.202.12c.282-.048.486-.135.612-.26.078-.063.142-.126.188-.188.063-.078.119-.158.166-.236.03-.094.054-.181.07-.26.031-.093.063-.18.094-.258.016-.094.024-.173.024-.235.016-.079.023-.142.023-.189v-.235l.141-12.222v-.66a1.856 1.856 0 0 0 0-.588c0-.094-.008-.196-.023-.306a1.236 1.236 0 0 0-.07-.258 1.842 1.842 0 0 0-.071-.284 1.048 1.048 0 0 0-.26-.376.96.96 0 0 0-.54-.283 1.881 1.881 0 0 0-.307-.023 2.038 2.038 0 0 0-.33-.024Zm9.001.094a55.46 55.46 0 0 1-1.578.024h-1.954c-.125 0-.252.008-.377.024a3.517 3.517 0 0 0-.707.14 1.671 1.671 0 0 0-.4.166c-.125.062-.22.118-.282.165-.204.125-.33.282-.377.47a.699.699 0 0 0-.047.26v.282c0 .251.087.479.26.683.188.204.447.353.776.447.125.032.283.064.47.095l.449.07c.11.016.315.031.612.047.298.016.612.031.941.047h1.555V18.73c0 .156.023.306.07.447.016.157.072.322.166.495.062.14.164.283.305.424.142.11.346.18.612.212.424.094.81.054 1.155-.119.219-.14.369-.29.447-.447l.07-.141c0-.032.032-.079.094-.141.031-.078.056-.15.072-.212.015-.078.023-.157.023-.235.015-.189.039-.354.07-.495.016-.079.024-.142.024-.189v-.188a1.957 1.957 0 0 1-.024-.353v-5.18c.016-.974.024-1.83.024-2.567.015-.738.023-1.382.023-1.932 0-.564-.008-1.09-.023-1.577h.8c.283 0 .566-.008.848-.023h1.555c.11 0 .22-.008.329-.024a3.53 3.53 0 0 1 .353-.07c.11-.017.22-.04.33-.071.22-.047.392-.118.518-.212.157-.157.258-.322.306-.494.015-.079.024-.166.024-.26.016-.11.024-.212.024-.306 0-.22-.088-.431-.26-.635a.823.823 0 0 0-.306-.26 1.872 1.872 0 0 0-.4-.188 2.57 2.57 0 0 0-.566-.165 6.736 6.736 0 0 0-.588-.07 77.288 77.288 0 0 0-2.708-.048 78.001 78.001 0 0 0-2.708 0ZM12.816 7.162c1.097 0 1.951.266 2.565.797.618.531 1.014 1.222 1.188 2.072l-1.826.333c-.15-.492-.388-.89-.717-1.195-.328-.304-.732-.456-1.21-.456-.42 0-.8.123-1.137.369-.338.242-.609.609-.812 1.102-.198.492-.297 1.108-.297 1.847 0 .696.087 1.295.261 1.797.179.502.434.889.768 1.16.333.27.74.405 1.217.405.614 0 1.087-.162 1.42-.486.338-.328.507-.746.507-1.253h1.826c0 .7-.152 1.297-.457 1.79-.3.487-.729.862-1.289 1.122-.56.261-1.23.392-2.007.392-.825 0-1.545-.196-2.159-.587-.608-.396-1.082-.961-1.42-1.695-.338-.734-.507-1.616-.508-2.645 0-1.062.174-1.954.522-2.674.353-.724.836-1.27 1.45-1.637.617-.372 1.323-.558 2.115-.558Zm56.93 6.043c0 .772.195 1.33.586 1.673.396.343.901.515 1.515.515.618 0 1.122-.172 1.513-.515.391-.343.587-.9.587-1.673V7.351h1.71v5.854c0 .792-.152 1.468-.456 2.028-.304.56-.741.988-1.311 1.283-.565.294-1.246.442-2.043.442-.797 0-1.481-.148-2.051-.442-.565-.295-1-.722-1.304-1.283-.304-.56-.457-1.236-.457-2.028V7.351h1.71v5.854ZM3.795 7.351c.725 0 1.326.113 1.805.34.478.223.835.522 1.072.899.236.377.355.794.355 1.253 0 .531-.15.985-.449 1.362-.294.377-.71.642-1.246.797.352.072.67.205.95.398.28.194.5.437.658.732.165.295.246.633.247 1.014 0 .3-.054.602-.16.906-.101.304-.28.588-.536.848-.25.256-.596.464-1.036.623-.435.155-.983.232-1.644.232H0V7.35h3.797Zm20.77 6.504V7.351h1.71v9.404h-1.74l-4.274-6.685v6.685h-1.71V7.35h1.869l4.144 6.504Zm35.107-2.578h4.1V7.351h1.71v9.404h-1.71V12.77h-4.1v3.985h-1.71V7.35h1.71v3.926ZM81.98 7.351c.725 0 1.326.113 1.804.34.478.223.836.521 1.072.898.237.377.356.795.356 1.254 0 .531-.15.985-.45 1.362-.294.377-.71.642-1.245.797.352.072.669.205.949.398.28.194.5.437.659.732.164.295.246.633.246 1.014 0 .3-.053.602-.16.906a2.21 2.21 0 0 1-.535.848c-.252.256-.597.464-1.036.623-.435.155-.983.232-1.645.232h-3.811V7.35h3.796ZM1.71 15.263h2.058c.545 0 .944-.11 1.195-.326.256-.223.384-.52.384-.892s-.13-.669-.391-.89c-.26-.228-.657-.341-1.188-.341H1.71v2.449Zm78.184 0h2.058c.546 0 .945-.11 1.196-.326.256-.223.384-.52.384-.892s-.13-.669-.391-.89c-.261-.228-.657-.341-1.189-.341h-2.058v2.449ZM1.71 11.32h2.015c.507 0 .89-.112 1.151-.334.266-.227.398-.535.398-.927 0-.371-.13-.669-.39-.891-.256-.227-.639-.34-1.146-.34H1.71v2.492Zm78.184 0h2.015c.507 0 .891-.112 1.151-.334.266-.227.4-.535.4-.927 0-.371-.13-.669-.392-.891-.256-.227-.637-.34-1.144-.34h-2.03v2.492Z"/></svg>