<svg width="823" height="349" fill="none" xmlns="http://www.w3.org/2000/svg"><path d="M552.218 273.979c22.19.001 29.869 19.065 29.869 37.694v4.839h-38.541c0 6.256 1.283 16.925 10.384 16.926 5.545 0 10.235-3.988 11.662-9.819l15.498 5.691a29.436 29.436 0 0 1-28.587 19.485c-22.045 0-31.998-17.772-31.998-37.548 0-20.201 10.519-37.268 31.713-37.268Zm-372.09 0c13.795.001 28.161 5.976 28.161 21.76v39.832c0 8.11 1.282 10.524 2.139 11.521h-23.754c-.426-1.989-.426-4.408-.711-6.542-4.123 4.838-10.239 8.25-17.352 8.25-12.377 0-20.482-7.965-20.482-21.904 0-19.205 21.62-24.75 37.123-25.176l-.005-4.839c0-4.263-1.848-8.391-5.971-8.391-5.264 0-7.113 5.406-7.539 9.388l-20.056-4.123c2.559-14.085 15.363-19.776 28.447-19.776Zm188.101 0c13.8.001 28.167 5.976 28.167 21.76v39.832c0 8.11 1.277 10.524 2.133 11.521h-23.754c-.425-1.989-.425-4.408-.711-6.542-4.122 4.838-10.238 8.25-17.351 8.25-12.377 0-20.482-7.964-20.483-21.904 0-19.205 21.62-24.75 37.124-25.176l-.005-4.839c0-4.263-1.849-8.39-5.971-8.391-5.265 0-7.113 5.406-7.539 9.388l-20.057-4.123c2.56-14.085 15.364-19.776 28.447-19.776Zm284.387 0c21.469.001 32.144 15.789 32.144 37.127 0 22.195-10.244 37.694-32.144 37.694-21.909 0-32.153-15.503-32.153-37.694 0-21.338 10.674-37.127 32.153-37.127Zm139.49 0c13.805 0 28.171 5.976 28.171 21.76v39.832c0 8.109 1.278 10.524 2.129 11.521h-23.753c-.425-1.989-.425-4.408-.711-6.542-4.122 4.838-10.234 8.25-17.346 8.25-12.377 0-20.483-7.964-20.483-21.904 0-19.205 21.619-24.75 37.127-25.176h-.01v-4.839c0-4.263-1.852-8.391-5.975-8.391-5.264 0-7.108 5.406-7.538 9.388l-20.052-4.123c2.56-14.085 15.353-19.775 28.441-19.776Zm-304.882 0c24.459 0 28.161 21.194 28.161 28.307l-19.635-.005c0-2.84-.136-6.261-1.133-8.961-1.142-2.84-2.99-4.834-6.691-4.834-7.674 0-8.527 9.387-8.527 23.613 0 16.074 2.561 21.338 8.527 21.339 8.109 0 8.821-8.251 8.821-13.656l17.922 2.56c-1.708 17.351-11.661 26.453-28.441 26.453-20.763 0-31.578-18.203-31.578-35.84 0-19.49 10.814-38.975 32.574-38.976ZM61.016 245.818v19.631H25.602v20.482h25.175v19.626H25.602v41.535H0V245.818h61.016Zm29.434 29.87v71.404H67.408v-71.404H90.45Zm56.734 21.619c-3.131-1.137-6.116-1.994-9.387-1.994-7.684.001-10.099 1.994-12.658 5.55v46.229h-23.046v-71.404h22.615v10.809h.286c2.845-8.961 13.088-12.517 22.19-12.518v23.328Zm154.499-51.494c18.493.001 29.728 10.239 29.728 24.179 0 12.518-8.531 21.624-19.059 23.899v.285c13.224 3.275 20.908 11.667 20.908 25.036 0 17.066-13.09 27.88-33.146 27.88H259.01l.005-101.279h42.668Zm152.026 51.494c-3.135-1.137-6.116-1.994-9.387-1.994-7.688.001-10.098 1.994-12.658 5.55v46.229h-23.046v-71.404h22.615v10.809h.287c2.84-8.961 13.088-12.517 22.189-12.518v23.328Zm159.094-51.489v101.274h-23.042V245.818h23.042Zm123.833 28.161c9.242 0 15.218 6.262 15.218 16.075v57.038h-23.042v-50.496c0-3.837-1.292-6.402-5.55-6.402-2.419 0-4.413.997-5.976 2.991l-1.277 1.708v52.199h-23.042l-.004-71.404h23.041v9.527h.286c4.839-7.248 12.091-11.235 20.346-11.236Zm-84.02 14.511c-6.546 0-8.255 6.117-8.255 22.616 0 18.063 2.56 23.188 8.255 23.188 5.686 0 8.245-5.125 8.245-23.188 0-16.499-1.713-22.616-8.245-22.616Zm-467.369 24.324c-8.816.852-14.081 2.42-14.081 12.944 0 4.979 2.565 7.683 6.688 7.683 1.993 0 4.553-1.286 7.398-4.552l-.005-16.075Zm188.102 0c-8.816.852-14.081 2.42-14.081 12.944 0 4.979 2.564 7.683 6.687 7.683 1.994 0 4.553-1.286 7.399-4.552l-.005-16.075Zm423.891 0c-8.821.852-14.085 2.42-14.085 12.944 0 4.979 2.56 7.683 6.682 7.683 1.993 0 4.553-1.286 7.403-4.552v-16.075Zm-512.629-9.812v25.315h9.387c5.545 0 12.799-2.414 12.799-12.797 0-7.544-4.549-12.518-12.799-12.518h-9.387Zm267.456-14.512c-6.532.001-8.525 7.68-8.525 14.366h17.206c-.145-6.682-.712-14.366-8.681-14.366Zm-267.456-24.749v22.19h8.391c9.246 0 12.803-4.984 12.803-10.954 0-9.673-6.402-11.236-12.233-11.236h-8.961Zm-194.16-17.923v20.483H67.407v-20.483H90.45Zm235.033-88.297.627 39.378h-8.974l-111.106-91.891h61.657l57.796 52.513Zm176.381 39.378h-8.994l.651-39.378 57.787-52.513h61.657l-111.101 91.891Zm-140.427-52.5s-.631 6.87-2.554 8.12c-1.942 1.254-.66 23.13-.66 23.13l-18.62.627v-13.748L240.703 52.499h75.144l45.591 91.9Zm216.854-91.9-98.911 110.029v13.748l-18.614-.627c0-.009 1.286-21.876-.661-23.13-1.918-1.25-2.559-8.12-2.559-8.12l45.597-91.9h75.148Zm-173.189 78.766-8.343 8.128s-3.851 7.501-2.56 15.003c1.277 7.476.641 13.713.636 13.761l-20.543 4.993v-23.126L312 0h86.697l6.406 131.265ZM506.99 0l-62.293 150.024v23.126l-20.548-4.993c-.004-.047-.618-6.285.641-13.761 1.278-7.502-2.56-15.003-2.56-15.003l-8.362-8.128L420.303 0h86.687Z" fill="#fff"/></svg>