<svg width="252" height="57" fill="none" xmlns="http://www.w3.org/2000/svg"><path d="M222.692 53.28c-.468.346-1.049.61-1.741.794a9.05 9.05 0 0 1-2.139.245c-1.955 0-3.473-.5-4.552-1.498-1.06-.998-1.589-2.464-1.589-4.4V41.67h-2.536v-3.666h2.536V34h4.766v4.003h4.094v3.666h-4.094v6.691c0 .693.173 1.233.52 1.62.366.366.875.55 1.527.55.754 0 1.396-.204 1.925-.611l1.283 3.36ZM202.493 37.636h4.766v16.438h-4.766V37.636Zm2.383-2.291c-.876 0-1.589-.255-2.139-.764a2.477 2.477 0 0 1-.825-1.895c0-.753.275-1.385.825-1.894.55-.51 1.263-.764 2.139-.764.876 0 1.589.245 2.139.734.55.488.825 1.1.825 1.833 0 .794-.275 1.456-.825 1.986-.55.51-1.263.764-2.139.764ZM191.091 37.392c2.057 0 3.687.61 4.888 1.833 1.223 1.202 1.834 3.014 1.834 5.438v9.411h-4.767v-8.677c0-1.304-.275-2.271-.825-2.903-.529-.652-1.293-.978-2.291-.978-1.121 0-2.007.367-2.658 1.1-.652.713-.978 1.783-.978 3.209v8.25h-4.767v-8.678c0-2.587-1.038-3.88-3.116-3.88-1.1 0-1.976.366-2.628 1.1-.652.712-.977 1.782-.977 3.208v8.25h-4.767V37.635h4.553v1.894a6.039 6.039 0 0 1 2.23-1.588c.896-.367 1.874-.55 2.933-.55 1.161 0 2.21.234 3.147.702a5.463 5.463 0 0 1 2.261 1.986 6.78 6.78 0 0 1 2.536-1.986c1.039-.468 2.17-.702 3.392-.702ZM158.841 37.392c2.057 0 3.687.61 4.888 1.833 1.223 1.202 1.834 3.014 1.834 5.438v9.411h-4.767v-8.677c0-1.304-.275-2.271-.825-2.903-.529-.652-1.293-.978-2.291-.978-1.121 0-2.007.367-2.658 1.1-.652.713-.978 1.783-.978 3.209v8.25h-4.767v-8.678c0-2.587-1.038-3.88-3.116-3.88-1.1 0-1.976.366-2.628 1.1-.652.712-.977 1.782-.977 3.208v8.25h-4.767V37.635h4.553v1.894a6.039 6.039 0 0 1 2.23-1.588c.896-.367 1.874-.55 2.933-.55 1.161 0 2.21.234 3.147.702a5.463 5.463 0 0 1 2.261 1.986 6.78 6.78 0 0 1 2.536-1.986c1.039-.468 2.17-.702 3.392-.702ZM132.966 37.636v16.438h-4.522v-1.956a6.482 6.482 0 0 1-2.261 1.65 7.281 7.281 0 0 1-2.841.55c-2.159 0-3.87-.621-5.133-1.863-1.263-1.243-1.895-3.087-1.895-5.53v-9.29h4.767v8.586c0 2.649 1.11 3.973 3.33 3.973 1.141 0 2.058-.367 2.75-1.1.693-.754 1.039-1.864 1.039-3.33v-8.128h4.766ZM103.675 54.44c-1.691 0-3.331-.224-4.92-.672-1.568-.468-2.83-1.07-3.788-1.802l1.68-3.728c.917.672 2.007 1.212 3.27 1.62 1.262.407 2.525.61 3.788.61 1.406 0 2.445-.203 3.117-.61.672-.428 1.008-.988 1.008-1.681 0-.51-.204-.927-.611-1.253-.387-.346-.896-.621-1.528-.825-.611-.203-1.446-.427-2.505-.672-1.63-.387-2.964-.774-4.003-1.161a6.619 6.619 0 0 1-2.689-1.864c-.733-.855-1.1-1.996-1.1-3.422 0-1.242.337-2.363 1.009-3.36.672-1.02 1.68-1.824 3.025-2.415 1.364-.59 3.025-.886 4.98-.886 1.365 0 2.699.163 4.003.49 1.303.325 2.444.794 3.422 1.405l-1.528 3.758c-1.976-1.12-3.952-1.68-5.928-1.68-1.385 0-2.413.223-3.086.672-.651.448-.977 1.038-.977 1.772 0 .733.377 1.283 1.13 1.65.774.346 1.946.692 3.514 1.038 1.63.388 2.964.775 4.003 1.162a6.52 6.52 0 0 1 2.658 1.833c.753.835 1.13 1.965 1.13 3.391a5.847 5.847 0 0 1-1.039 3.361c-.672.998-1.69 1.793-3.055 2.383-1.365.591-3.025.886-4.98.886ZM77.204 36.72h-6.845v-4.033h18.638v4.033h-6.844v17.354h-4.95V36.72ZM62.137 32.687h4.95v21.387h-4.95V32.687Z" fill="#fff"/><path d="M30.446 53.407c0 1.938-3.753 3.509-8.382 3.509-4.63 0-8.382-1.57-8.382-3.509 0-1.938 3.752-3.509 8.382-3.509.263 0 .523.005.78.015.297.012-1.972 3.438-1.115 3.438 1.426 1.222 8.555-.633 8.555-.633.106.223.162.453.162.69Z" fill="#fff" fill-opacity=".4"/><path d="M244.808 7.448c2.037 0 3.676.611 4.919 1.833 1.263 1.223 1.894 3.035 1.894 5.44v9.41h-4.766v-8.678c0-1.303-.285-2.27-.856-2.902-.57-.652-1.395-.978-2.475-.978-1.201 0-2.159.377-2.872 1.13-.713.734-1.069 1.834-1.069 3.3v8.128h-4.767V7.693h4.553v1.925c.631-.693 1.416-1.223 2.353-1.59.937-.386 1.965-.58 3.086-.58ZM222.005 24.375c-1.731 0-3.29-.356-4.675-1.07-1.365-.732-2.434-1.74-3.208-3.024-.774-1.283-1.161-2.74-1.161-4.37 0-1.629.387-3.085 1.161-4.368.774-1.284 1.843-2.282 3.208-2.995 1.385-.733 2.944-1.1 4.675-1.1 1.731 0 3.279.367 4.644 1.1 1.365.713 2.434 1.711 3.208 2.995.774 1.283 1.161 2.74 1.161 4.369 0 1.63-.387 3.086-1.161 4.369s-1.843 2.292-3.208 3.025c-1.365.713-2.913 1.07-4.644 1.07Zm0-3.91c1.222 0 2.22-.408 2.994-1.223.795-.835 1.192-1.945 1.192-3.33s-.397-2.485-1.192-3.3c-.774-.835-1.772-1.253-2.994-1.253-1.222 0-2.231.418-3.025 1.253-.794.815-1.192 1.915-1.192 3.3 0 1.385.398 2.495 1.192 3.33.794.815 1.803 1.222 3.025 1.222ZM204.383 7.693h4.767V24.13h-4.767V7.693Zm2.383-2.292c-.875 0-1.588-.254-2.138-.763a2.477 2.477 0 0 1-.825-1.895c0-.753.275-1.385.825-1.894.55-.51 1.263-.764 2.138-.764.876 0 1.589.244 2.139.733.55.49.825 1.1.825 1.833 0 .795-.275 1.457-.825 1.987-.55.509-1.263.763-2.139.763ZM106.765 24.345c-.876 0-1.589-.255-2.139-.764a2.477 2.477 0 0 1-.825-1.895c0-.753.275-1.385.825-1.894.55-.51 1.263-.764 2.139-.764.875 0 1.588.245 2.138.734.55.488.825 1.1.825 1.833 0 .794-.275 1.456-.825 1.986-.55.51-1.263.764-2.138.764ZM106.561 15.382c-.875 0-1.588-.255-2.138-.764a2.477 2.477 0 0 1-.825-1.894c0-.754.275-1.386.825-1.895.55-.509 1.263-.764 2.138-.764.876 0 1.589.245 2.139.734.55.489.825 1.1.825 1.833 0 .794-.275 1.456-.825 1.986-.55.51-1.263.764-2.139.764ZM201.097 23.336c-.469.347-1.049.611-1.742.795a9.055 9.055 0 0 1-2.139.244c-1.955 0-3.473-.499-4.552-1.497-1.059-.998-1.589-2.465-1.589-4.4v-6.752h-2.536V8.059h2.536V4.057h4.766v4.002h4.095v3.667h-4.095v6.691c0 .693.174 1.232.52 1.62.367.366.876.55 1.528.55.753 0 1.395-.204 1.925-.612l1.283 3.361ZM178.063 7.448c2.546 0 4.502.611 5.866 1.833 1.365 1.202 2.047 3.025 2.047 5.47v9.38h-4.46v-2.047c-.897 1.527-2.567 2.291-5.011 2.291-1.263 0-2.363-.214-3.3-.641-.917-.428-1.62-1.019-2.108-1.773-.489-.753-.734-1.609-.734-2.566 0-1.528.571-2.73 1.711-3.605 1.161-.876 2.944-1.314 5.347-1.314h3.789c0-1.04-.316-1.834-.947-2.384-.632-.57-1.579-.855-2.842-.855-.876 0-1.741.143-2.597.428-.835.265-1.548.631-2.139 1.1l-1.711-3.33c.897-.632 1.966-1.121 3.209-1.467a14.6 14.6 0 0 1 3.88-.52Zm-.367 13.719c.815 0 1.538-.183 2.17-.55.631-.387 1.079-.947 1.344-1.68v-1.68h-3.269c-1.956 0-2.934.64-2.934 1.924 0 .611.235 1.1.703 1.467.489.346 1.151.519 1.986.519ZM160.713 24.375c-1.752 0-3.33-.356-4.736-1.07-1.385-.732-2.475-1.74-3.269-3.024-.774-1.283-1.161-2.74-1.161-4.37 0-1.629.387-3.085 1.161-4.368.794-1.284 1.884-2.282 3.269-2.995 1.406-.733 2.984-1.1 4.736-1.1 1.731 0 3.239.367 4.522 1.1 1.304.713 2.251 1.742 2.842 3.086l-3.697 1.986c-.856-1.507-2.088-2.26-3.697-2.26-1.243 0-2.272.407-3.086 1.221-.815.815-1.223 1.925-1.223 3.33 0 1.406.408 2.516 1.223 3.331.814.815 1.843 1.222 3.086 1.222 1.629 0 2.861-.753 3.697-2.26l3.697 2.016c-.591 1.303-1.538 2.322-2.842 3.055-1.283.734-2.791 1.1-4.522 1.1ZM139.96 24.375c-1.731 0-3.29-.356-4.675-1.07-1.364-.732-2.434-1.74-3.208-3.024-.774-1.283-1.161-2.74-1.161-4.37 0-1.629.387-3.085 1.161-4.368.774-1.284 1.844-2.282 3.208-2.995 1.385-.733 2.944-1.1 4.675-1.1 1.731 0 3.279.367 4.644 1.1 1.365.713 2.434 1.711 3.208 2.995.774 1.283 1.161 2.74 1.161 4.369 0 1.63-.387 3.086-1.161 4.369s-1.843 2.292-3.208 3.025c-1.365.713-2.913 1.07-4.644 1.07Zm0-3.91c1.222 0 2.22-.408 2.994-1.223.795-.835 1.192-1.945 1.192-3.33s-.397-2.485-1.192-3.3c-.774-.835-1.772-1.253-2.994-1.253-1.222 0-2.23.418-3.025 1.253-.794.815-1.191 1.915-1.191 3.3 0 1.385.397 2.495 1.191 3.33.795.815 1.803 1.222 3.025 1.222ZM100.574 15.973c0 .06-.03.489-.092 1.283H88.047c.224 1.019.754 1.823 1.589 2.414.835.59 1.874.886 3.116.886.856 0 1.61-.122 2.261-.367a5.677 5.677 0 0 0 1.864-1.222l2.536 2.75c-1.548 1.772-3.809 2.658-6.783 2.658-1.853 0-3.493-.356-4.92-1.07-1.425-.732-2.525-1.74-3.299-3.024-.774-1.283-1.161-2.74-1.161-4.37 0-1.608.377-3.055 1.13-4.338a8.022 8.022 0 0 1 3.148-3.025c1.344-.733 2.841-1.1 4.491-1.1 1.61 0 3.066.347 4.37 1.04a7.456 7.456 0 0 1 3.055 2.993c.753 1.284 1.13 2.78 1.13 4.492Zm-8.524-4.92c-1.08 0-1.986.306-2.72.917-.733.611-1.181 1.446-1.344 2.506h8.097c-.163-1.04-.611-1.864-1.345-2.475-.733-.632-1.63-.947-2.688-.947ZM75.764 24.131l-4.125-5.958h-4.552v5.958h-4.95V2.743h9.258c1.894 0 3.534.316 4.919.947 1.405.632 2.485 1.528 3.239 2.69.753 1.16 1.13 2.535 1.13 4.124 0 1.589-.387 2.964-1.161 4.125-.754 1.14-1.833 2.016-3.239 2.627l4.797 6.875h-5.316Zm-.092-13.627c0-1.202-.387-2.119-1.16-2.75-.775-.652-1.905-.978-3.392-.978h-4.034v7.456h4.034c1.487 0 2.617-.326 3.391-.978.774-.652 1.161-1.569 1.161-2.75ZM113.582 2.733h4.95v17.355h10.724v4.033h-15.674V2.733ZM21.87 2.53c11.734 0 21.246 9.513 21.246 21.247 0 .786-.044 1.561-.127 2.325-.73 7.771-4.937 19.95-21.252 27.338-.203.092-.538-.314-.431-.51 1.24-2.247 2.503-7.119-2.171-8.08a21.318 21.318 0 0 1-.886-.134C8.239 42.997.621 34.278.621 23.777.621 12.042 10.134 2.53 21.87 2.53Zm.013 13.443A7.818 7.818 0 0 0 20.592 31.5h.004c.08.013.16.024.24.035 1.607.303 1.367 1.828.965 2.73-.053.12.168.377.287.322 5.338-2.516 6.996-6.45 7.46-9.256a7.85 7.85 0 0 0 .147-1.371l.003-.03-.002-.01c.001-.043.004-.086.004-.13 0-4.317-3.5-7.818-7.817-7.818Z" fill="#fff"/></svg>